<svg width="160" height="253" viewBox="0 0 160 253" fill="none" xmlns="http://www.w3.org/2000/svg">
<g id="download_buttons">
<g id="download_apk">
<g id="Android">
</g>
<g id="Group 2">
</g>
</g>
<g id="download_apple">
<g id="Group 2_2">
</g>
</g>
<g id="download_huawei">
<g id="Huawei_AppGallery 1">
</g>
<g id="Group 2_3">
</g>
</g>
<g id="download_samsung">
<g id="Group 14">
</g>
<g id="Group 13">
<g id="Shape 526">
<g id="Group">
</g>
</g>
</g>
<g id="Group 2_4">
</g>
</g>
<g id="download_play">
<rect id="Rectangle_5" y="101" width="160" height="50" rx="5" fill="black"/>
<g id="Group_2">
<g id="path46">
<mask id="path-21-outside-1" maskUnits="userSpaceOnUse" x="48.2199" y="121.234" width="101.492" height="22.2914" fill="black">
<rect fill="white" x="48.2199" y="121.234" width="101.492" height="22.2914"/>
<path d="M81.2809 127.986C78.5236 127.986 76.2711 130.06 76.2711 132.922C76.2711 135.76 78.5236 137.856 81.2809 137.856C84.0441 137.856 86.2966 135.76 86.2966 132.922C86.2966 130.06 84.0441 127.986 81.2809 127.986ZM81.2809 135.912C79.768 135.912 78.4664 134.678 78.4664 132.922C78.4664 131.142 79.768 129.93 81.2809 129.93C82.7939 129.93 84.1013 131.142 84.1013 132.922C84.1013 134.678 82.7939 135.912 81.2809 135.912ZM70.35 127.986C67.5869 127.986 65.3402 130.06 65.3402 132.922C65.3402 135.76 67.5869 137.856 70.35 137.856C73.1117 137.856 75.3598 135.76 75.3598 132.922C75.3598 130.06 73.1117 127.986 70.35 127.986ZM70.35 135.912C68.8356 135.912 67.5296 134.678 67.5296 132.922C67.5296 131.142 68.8356 129.93 70.35 129.93C71.863 129.93 73.1646 131.142 73.1646 132.922C73.1646 134.678 71.863 135.912 70.35 135.912ZM57.3427 129.499V131.596H62.4098C62.2616 132.768 61.8654 133.629 61.2578 134.23C60.5183 134.955 59.3663 135.76 57.3427 135.76C54.2244 135.76 51.7826 133.273 51.7826 130.191C51.7826 127.109 54.2244 124.621 57.3427 124.621C59.0288 124.621 60.2556 125.272 61.161 126.117L62.6563 124.639C61.3899 123.444 59.7053 122.525 57.3427 122.525C53.0666 122.525 49.4729 125.964 49.4729 130.191C49.4729 134.417 53.0666 137.856 57.3427 137.856C59.6539 137.856 61.3899 137.107 62.7546 135.703C64.1531 134.321 64.5889 132.378 64.5889 130.808C64.5889 130.321 64.5478 129.873 64.4744 129.499H57.3427ZM110.531 131.125C110.119 130.021 108.847 127.986 106.255 127.986C103.687 127.986 101.549 129.986 101.549 132.922C101.549 135.686 103.665 137.856 106.502 137.856C108.795 137.856 110.119 136.474 110.663 135.669L108.961 134.548C108.393 135.368 107.62 135.912 106.502 135.912C105.391 135.912 104.594 135.409 104.083 134.417L110.762 131.686L110.531 131.125ZM103.722 132.768C103.665 130.865 105.218 129.89 106.33 129.89C107.202 129.89 107.941 130.321 108.188 130.938L103.722 132.768ZM98.2943 137.556H100.49V123.052H98.2943V137.556ZM94.6991 129.085H94.6257C94.1327 128.508 93.1921 127.986 92.0005 127.986C89.5 127.986 87.2138 130.156 87.2138 132.938C87.2138 135.703 89.5 137.856 92.0005 137.856C93.1921 137.856 94.1327 137.329 94.6257 136.735H94.6991V137.442C94.6991 139.329 93.6792 140.343 92.0343 140.343C90.693 140.343 89.861 139.386 89.5176 138.581L87.6085 139.369C88.1588 140.677 89.6159 142.287 92.0343 142.287C94.6081 142.287 96.7799 140.79 96.7799 137.148V128.286H94.6991V129.085ZM92.1883 135.912C90.6754 135.912 89.409 134.661 89.409 132.938C89.409 131.199 90.6754 129.93 92.1883 129.93C93.6793 129.93 94.8547 131.199 94.8547 132.938C94.8547 134.661 93.6793 135.912 92.1883 135.912ZM120.809 123.052H115.559V137.556H117.748V132.06H120.809C123.241 132.06 125.625 130.321 125.625 127.555C125.625 124.791 123.235 123.052 120.809 123.052ZM120.866 130.043H117.748V125.069H120.866C122.501 125.069 123.434 126.411 123.434 127.555C123.434 128.678 122.501 130.043 120.866 130.043ZM134.4 127.959C132.819 127.959 131.174 128.649 130.497 130.179L132.44 130.984C132.858 130.179 133.627 129.918 134.44 129.918C135.576 129.918 136.728 130.592 136.745 131.783V131.935C136.349 131.709 135.501 131.374 134.458 131.374C132.365 131.374 130.233 132.513 130.233 134.637C130.233 136.581 131.947 137.833 133.874 137.833C135.347 137.833 136.16 137.176 136.671 136.411H136.745V137.532H138.86V131.969C138.86 129.397 136.917 127.959 134.4 127.959ZM134.136 135.906C133.42 135.906 132.422 135.556 132.422 134.678C132.422 133.555 133.667 133.125 134.744 133.125C135.708 133.125 136.16 133.335 136.745 133.612C136.574 134.955 135.404 135.906 134.136 135.906ZM146.564 128.276L144.047 134.563H143.973L141.371 128.276H139.01L142.919 137.062L140.688 141.952H142.976L149 128.276H146.564ZM126.829 137.556H129.024V123.052H126.829V137.556Z"/>
</mask>
<path d="M81.2809 127.986C78.5236 127.986 76.2711 130.06 76.2711 132.922C76.2711 135.76 78.5236 137.856 81.2809 137.856C84.0441 137.856 86.2966 135.76 86.2966 132.922C86.2966 130.06 84.0441 127.986 81.2809 127.986ZM81.2809 135.912C79.768 135.912 78.4664 134.678 78.4664 132.922C78.4664 131.142 79.768 129.93 81.2809 129.93C82.7939 129.93 84.1013 131.142 84.1013 132.922C84.1013 134.678 82.7939 135.912 81.2809 135.912ZM70.35 127.986C67.5869 127.986 65.3402 130.06 65.3402 132.922C65.3402 135.76 67.5869 137.856 70.35 137.856C73.1117 137.856 75.3598 135.76 75.3598 132.922C75.3598 130.06 73.1117 127.986 70.35 127.986ZM70.35 135.912C68.8356 135.912 67.5296 134.678 67.5296 132.922C67.5296 131.142 68.8356 129.93 70.35 129.93C71.863 129.93 73.1646 131.142 73.1646 132.922C73.1646 134.678 71.863 135.912 70.35 135.912ZM57.3427 129.499V131.596H62.4098C62.2616 132.768 61.8654 133.629 61.2578 134.23C60.5183 134.955 59.3663 135.76 57.3427 135.76C54.2244 135.76 51.7826 133.273 51.7826 130.191C51.7826 127.109 54.2244 124.621 57.3427 124.621C59.0288 124.621 60.2556 125.272 61.161 126.117L62.6563 124.639C61.3899 123.444 59.7053 122.525 57.3427 122.525C53.0666 122.525 49.4729 125.964 49.4729 130.191C49.4729 134.417 53.0666 137.856 57.3427 137.856C59.6539 137.856 61.3899 137.107 62.7546 135.703C64.1531 134.321 64.5889 132.378 64.5889 130.808C64.5889 130.321 64.5478 129.873 64.4744 129.499H57.3427ZM110.531 131.125C110.119 130.021 108.847 127.986 106.255 127.986C103.687 127.986 101.549 129.986 101.549 132.922C101.549 135.686 103.665 137.856 106.502 137.856C108.795 137.856 110.119 136.474 110.663 135.669L108.961 134.548C108.393 135.368 107.62 135.912 106.502 135.912C105.391 135.912 104.594 135.409 104.083 134.417L110.762 131.686L110.531 131.125ZM103.722 132.768C103.665 130.865 105.218 129.89 106.33 129.89C107.202 129.89 107.941 130.321 108.188 130.938L103.722 132.768ZM98.2943 137.556H100.49V123.052H98.2943V137.556ZM94.6991 129.085H94.6257C94.1327 128.508 93.1921 127.986 92.0005 127.986C89.5 127.986 87.2138 130.156 87.2138 132.938C87.2138 135.703 89.5 137.856 92.0005 137.856C93.1921 137.856 94.1327 137.329 94.6257 136.735H94.6991V137.442C94.6991 139.329 93.6792 140.343 92.0343 140.343C90.693 140.343 89.861 139.386 89.5176 138.581L87.6085 139.369C88.1588 140.677 89.6159 142.287 92.0343 142.287C94.6081 142.287 96.7799 140.79 96.7799 137.148V128.286H94.6991V129.085ZM92.1883 135.912C90.6754 135.912 89.409 134.661 89.409 132.938C89.409 131.199 90.6754 129.93 92.1883 129.93C93.6793 129.93 94.8547 131.199 94.8547 132.938C94.8547 134.661 93.6793 135.912 92.1883 135.912ZM120.809 123.052H115.559V137.556H117.748V132.06H120.809C123.241 132.06 125.625 130.321 125.625 127.555C125.625 124.791 123.235 123.052 120.809 123.052ZM120.866 130.043H117.748V125.069H120.866C122.501 125.069 123.434 126.411 123.434 127.555C123.434 128.678 122.501 130.043 120.866 130.043ZM134.4 127.959C132.819 127.959 131.174 128.649 130.497 130.179L132.44 130.984C132.858 130.179 133.627 129.918 134.44 129.918C135.576 129.918 136.728 130.592 136.745 131.783V131.935C136.349 131.709 135.501 131.374 134.458 131.374C132.365 131.374 130.233 132.513 130.233 134.637C130.233 136.581 131.947 137.833 133.874 137.833C135.347 137.833 136.16 137.176 136.671 136.411H136.745V137.532H138.86V131.969C138.86 129.397 136.917 127.959 134.4 127.959ZM134.136 135.906C133.42 135.906 132.422 135.556 132.422 134.678C132.422 133.555 133.667 133.125 134.744 133.125C135.708 133.125 136.16 133.335 136.745 133.612C136.574 134.955 135.404 135.906 134.136 135.906ZM146.564 128.276L144.047 134.563H143.973L141.371 128.276H139.01L142.919 137.062L140.688 141.952H142.976L149 128.276H146.564ZM126.829 137.556H129.024V123.052H126.829V137.556Z" fill="white"/>
<path d="M81.2809 127.986C78.5236 127.986 76.2711 130.06 76.2711 132.922C76.2711 135.76 78.5236 137.856 81.2809 137.856C84.0441 137.856 86.2966 135.76 86.2966 132.922C86.2966 130.06 84.0441 127.986 81.2809 127.986ZM81.2809 135.912C79.768 135.912 78.4664 134.678 78.4664 132.922C78.4664 131.142 79.768 129.93 81.2809 129.93C82.7939 129.93 84.1013 131.142 84.1013 132.922C84.1013 134.678 82.7939 135.912 81.2809 135.912ZM70.35 127.986C67.5869 127.986 65.3402 130.06 65.3402 132.922C65.3402 135.76 67.5869 137.856 70.35 137.856C73.1117 137.856 75.3598 135.76 75.3598 132.922C75.3598 130.06 73.1117 127.986 70.35 127.986ZM70.35 135.912C68.8356 135.912 67.5296 134.678 67.5296 132.922C67.5296 131.142 68.8356 129.93 70.35 129.93C71.863 129.93 73.1646 131.142 73.1646 132.922C73.1646 134.678 71.863 135.912 70.35 135.912ZM57.3427 129.499V131.596H62.4098C62.2616 132.768 61.8654 133.629 61.2578 134.23C60.5183 134.955 59.3663 135.76 57.3427 135.76C54.2244 135.76 51.7826 133.273 51.7826 130.191C51.7826 127.109 54.2244 124.621 57.3427 124.621C59.0288 124.621 60.2556 125.272 61.161 126.117L62.6563 124.639C61.3899 123.444 59.7053 122.525 57.3427 122.525C53.0666 122.525 49.4729 125.964 49.4729 130.191C49.4729 134.417 53.0666 137.856 57.3427 137.856C59.6539 137.856 61.3899 137.107 62.7546 135.703C64.1531 134.321 64.5889 132.378 64.5889 130.808C64.5889 130.321 64.5478 129.873 64.4744 129.499H57.3427ZM110.531 131.125C110.119 130.021 108.847 127.986 106.255 127.986C103.687 127.986 101.549 129.986 101.549 132.922C101.549 135.686 103.665 137.856 106.502 137.856C108.795 137.856 110.119 136.474 110.663 135.669L108.961 134.548C108.393 135.368 107.62 135.912 106.502 135.912C105.391 135.912 104.594 135.409 104.083 134.417L110.762 131.686L110.531 131.125ZM103.722 132.768C103.665 130.865 105.218 129.89 106.33 129.89C107.202 129.89 107.941 130.321 108.188 130.938L103.722 132.768ZM98.2943 137.556H100.49V123.052H98.2943V137.556ZM94.6991 129.085H94.6257C94.1327 128.508 93.1921 127.986 92.0005 127.986C89.5 127.986 87.2138 130.156 87.2138 132.938C87.2138 135.703 89.5 137.856 92.0005 137.856C93.1921 137.856 94.1327 137.329 94.6257 136.735H94.6991V137.442C94.6991 139.329 93.6792 140.343 92.0343 140.343C90.693 140.343 89.861 139.386 89.5176 138.581L87.6085 139.369C88.1588 140.677 89.6159 142.287 92.0343 142.287C94.6081 142.287 96.7799 140.79 96.7799 137.148V128.286H94.6991V129.085ZM92.1883 135.912C90.6754 135.912 89.409 134.661 89.409 132.938C89.409 131.199 90.6754 129.93 92.1883 129.93C93.6793 129.93 94.8547 131.199 94.8547 132.938C94.8547 134.661 93.6793 135.912 92.1883 135.912ZM120.809 123.052H115.559V137.556H117.748V132.06H120.809C123.241 132.06 125.625 130.321 125.625 127.555C125.625 124.791 123.235 123.052 120.809 123.052ZM120.866 130.043H117.748V125.069H120.866C122.501 125.069 123.434 126.411 123.434 127.555C123.434 128.678 122.501 130.043 120.866 130.043ZM134.4 127.959C132.819 127.959 131.174 128.649 130.497 130.179L132.44 130.984C132.858 130.179 133.627 129.918 134.44 129.918C135.576 129.918 136.728 130.592 136.745 131.783V131.935C136.349 131.709 135.501 131.374 134.458 131.374C132.365 131.374 130.233 132.513 130.233 134.637C130.233 136.581 131.947 137.833 133.874 137.833C135.347 137.833 136.16 137.176 136.671 136.411H136.745V137.532H138.86V131.969C138.86 129.397 136.917 127.959 134.4 127.959ZM134.136 135.906C133.42 135.906 132.422 135.556 132.422 134.678C132.422 133.555 133.667 133.125 134.744 133.125C135.708 133.125 136.16 133.335 136.745 133.612C136.574 134.955 135.404 135.906 134.136 135.906ZM146.564 128.276L144.047 134.563H143.973L141.371 128.276H139.01L142.919 137.062L140.688 141.952H142.976L149 128.276H146.564ZM126.829 137.556H129.024V123.052H126.829V137.556Z" stroke="white" stroke-width="0.1" mask="url(#path-21-outside-1)"/>
</g>
<g id="g48">
<path id="path64" d="M13.5444 111.494C13.1996 111.851 13 112.407 13 113.126V138.786C13 139.505 13.1996 140.06 13.5444 140.417L13.6295 140.496L28.1776 126.123V125.783L13.6295 111.41L13.5444 111.494Z" fill="url(#paint1_linear)"/>
</g>
<g id="g66">
<path id="path78" d="M33.0214 130.916L28.1774 126.123V125.783L33.0272 120.99L33.1358 121.052L38.8793 124.282C40.5185 125.199 40.5185 126.707 38.8793 127.63L33.1358 130.854L33.0214 130.916Z" fill="url(#paint2_linear)"/>
</g>
<g id="g80">
<path id="path88" d="M33.1361 130.854L28.1777 125.953L13.5444 140.417C14.0889 140.983 14.9766 141.051 15.9862 140.486L33.1361 130.854Z" fill="url(#paint3_linear)"/>
</g>
<g id="g90">
<path id="path104" d="M33.1361 121.052L15.9862 111.42C14.9766 110.86 14.0889 110.929 13.5444 111.494L28.1777 125.953L33.1361 121.052Z" fill="url(#paint4_linear)"/>
</g>
</g>
<g id="Group 2_5">
<path id="GET IT ON_3" d="M50.9687 114.58V113.716C50.9687 112.785 51.2178 112.051 51.7158 111.514C52.2171 110.973 52.8991 110.703 53.7617 110.703C54.1654 110.703 54.5299 110.765 54.8555 110.889C55.1842 111.012 55.4528 111.18 55.6611 111.392C55.8695 111.6 56.0306 111.836 56.1445 112.1C56.2617 112.363 56.3268 112.643 56.3398 112.939H55.1875C55.1387 112.546 54.9824 112.243 54.7187 112.031C54.4551 111.816 54.1312 111.709 53.7471 111.709C53.2718 111.709 52.8877 111.877 52.5947 112.212C52.3018 112.547 52.1553 113.05 52.1553 113.721V114.58C52.1553 115.218 52.2871 115.719 52.5508 116.084C52.8177 116.445 53.2165 116.626 53.7471 116.626C54.1865 116.626 54.543 116.506 54.8164 116.265C55.0898 116.021 55.2266 115.715 55.2266 115.347V114.863H53.752V113.945H56.3545V115.288C56.3545 115.496 56.3268 115.705 56.2715 115.913C56.2161 116.121 56.1234 116.331 55.9932 116.543C55.863 116.751 55.7002 116.935 55.5049 117.095C55.3096 117.254 55.0589 117.384 54.7529 117.485C54.4502 117.583 54.1117 117.632 53.7373 117.632C52.8226 117.632 52.1325 117.357 51.667 116.807C51.2015 116.257 50.9687 115.514 50.9687 114.58ZM58.3605 117.5V110.835H62.5695V111.821H59.5373V113.652H62.3889V114.585H59.5373V116.514H62.5695V117.5H58.3605ZM63.9701 111.836V110.835H69.0141V111.836H67.0756V117.5H65.9037V111.836H63.9701ZM73.4168 117.5V110.835H74.5984V117.5H73.4168ZM76.2236 111.836V110.835H81.2676V111.836H79.3291V117.5H78.1572V111.836H76.2236ZM85.4066 114.639V113.75C85.4066 112.806 85.6573 112.062 86.1586 111.519C86.6599 110.975 87.3435 110.703 88.2094 110.703C89.0753 110.703 89.7572 110.975 90.2553 111.519C90.7533 112.062 91.0023 112.806 91.0023 113.75V114.639C91.0023 115.576 90.7517 116.31 90.2504 116.841C89.7523 117.368 89.0671 117.632 88.1947 117.632C87.3256 117.632 86.6436 117.368 86.1488 116.841C85.654 116.313 85.4066 115.579 85.4066 114.639ZM86.598 114.644C86.598 115.295 86.7445 115.789 87.0375 116.128C87.3305 116.463 87.7195 116.631 88.2045 116.631C88.6863 116.631 89.0736 116.463 89.3666 116.128C89.6596 115.789 89.8061 115.295 89.8061 114.644V113.74C89.8061 113.086 89.6579 112.583 89.3617 112.231C89.0687 111.88 88.683 111.704 88.2045 111.704C87.7227 111.704 87.3337 111.88 87.0375 112.231C86.7445 112.583 86.598 113.086 86.598 113.74V114.644ZM93.0035 117.5V110.835H94.024L97.0855 115.498H97.1246V110.835H98.2477V117.5H97.2369L94.1656 112.822H94.1314V117.5H93.0035Z" fill="white"/>
</g>
</g>
</g>
<defs>
<linearGradient id="paint0_linear" x1="12.3636" y1="213" x2="34.5909" y2="243" gradientUnits="userSpaceOnUse">
<stop stop-color="#F004E1"/>
<stop offset="0.737772" stop-color="#FF226C"/>
<stop offset="1" stop-color="#FF6655"/>
</linearGradient>
<linearGradient id="paint1_linear" x1="26.8859" y1="139.053" x2="7.41489" y2="119.353" gradientUnits="userSpaceOnUse">
<stop stop-color="#00A0FF"/>
<stop offset="0.0066" stop-color="#00A1FF"/>
<stop offset="0.2601" stop-color="#00BEFF"/>
<stop offset="0.5122" stop-color="#00D2FF"/>
<stop offset="0.7604" stop-color="#00DFFF"/>
<stop offset="1" stop-color="#00E3FF"/>
</linearGradient>
<linearGradient id="paint2_linear" x1="41.0137" y1="125.951" x2="12.6079" y2="125.951" gradientUnits="userSpaceOnUse">
<stop stop-color="#FFE000"/>
<stop offset="0.4087" stop-color="#FFBD00"/>
<stop offset="0.7754" stop-color="#FFA500"/>
<stop offset="1" stop-color="#FF9C00"/>
</linearGradient>
<linearGradient id="paint3_linear" x1="30.4398" y1="123.289" x2="4.03552" y2="96.5736" gradientUnits="userSpaceOnUse">
<stop stop-color="#FF3A44"/>
<stop offset="1" stop-color="#C31162"/>
</linearGradient>
<linearGradient id="paint4_linear" x1="9.86095" y1="148.954" x2="21.6517" y2="137.025" gradientUnits="userSpaceOnUse">
<stop stop-color="#32A071"/>
<stop offset="0.0685" stop-color="#2DA771"/>
<stop offset="0.4762" stop-color="#15CF74"/>
<stop offset="0.8009" stop-color="#06E775"/>
<stop offset="1" stop-color="#00F076"/>
</linearGradient>
</defs>
</svg>
