<?xml version="1.0" standalone="no"?>
<!DOCTYPE svg PUBLIC "-//W3C//DTD SVG 20010904//EN"
 "http://www.w3.org/TR/2001/REC-SVG-20010904/DTD/svg10.dtd">
<svg version="1.0" xmlns="http://www.w3.org/2000/svg"
 width="112.000000pt" height="60.000000pt" viewBox="0 0 112.000000 60.000000"
 preserveAspectRatio="xMidYMid meet">

<g transform="translate(0.000000,60.000000) scale(0.100000,-0.100000)"
fill="#000000" stroke="none">
<path d="M200 400 c0 -33 -4 -60 -10 -60 -15 0 -12 -29 5 -46 8 -9 15 -29 15
-45 0 -41 15 -66 50 -84 56 -29 145 -11 170 34 5 11 10 38 10 60 0 30 4 41 15
41 8 0 15 9 15 20 0 11 -7 20 -15 20 -12 0 -15 13 -15 60 0 47 -3 60 -15 60
-12 0 -15 -13 -15 -60 l0 -60 -85 0 -85 0 0 60 c0 53 -2 60 -20 60 -18 0 -20
-7 -20 -60z m206 -137 c-9 -47 -38 -73 -81 -73 -43 0 -72 26 -81 73 l-6 37 87
0 87 0 -6 -37z"/>
<path d="M484 438 c17 -62 18 -68 7 -68 -20 0 -12 -37 9 -43 12 -3 20 -14 20
-26 0 -14 -6 -21 -20 -21 -13 0 -20 -7 -20 -20 0 -15 7 -20 29 -20 26 0 30 -5
40 -45 9 -34 16 -45 31 -45 15 0 23 11 32 45 l12 45 51 0 51 0 12 -45 c9 -34
17 -45 32 -45 15 0 22 11 31 45 10 40 14 45 40 45 22 0 29 5 29 20 0 13 -7 20
-20 20 -14 0 -20 7 -20 21 0 12 8 23 20 26 20 5 29 43 9 43 -6 0 -8 8 -5 18
19 63 18 72 -2 72 -15 0 -22 -11 -31 -45 -11 -45 -12 -45 -55 -45 -43 0 -44 0
-55 45 -9 37 -15 45 -35 45 -19 0 -26 -8 -36 -45 -12 -44 -13 -45 -56 -45 -45
0 -44 0 -58 63 -5 19 -13 27 -27 27 -17 0 -20 -4 -15 -22z m206 -60 c0 -5 -7
-8 -15 -8 -17 0 -18 2 -9 25 5 13 8 14 15 3 5 -7 9 -16 9 -20z m-79 -70 c-10
-27 -40 -36 -52 -16 -17 26 -9 38 26 38 31 0 34 -2 26 -22z m93 6 c11 -29 6
-34 -29 -34 -35 0 -40 5 -29 34 8 21 50 21 58 0z m96 4 c-1 -42 -47 -50 -61
-10 -8 20 -5 22 26 22 21 0 35 -5 35 -12z m-210 -93 c0 -8 -4 -15 -10 -15 -5
0 -10 7 -10 15 0 8 5 15 10 15 6 0 10 -7 10 -15z m190 6 c0 -6 -4 -13 -10 -16
-5 -3 -10 1 -10 9 0 9 5 16 10 16 6 0 10 -4 10 -9z"/>
</g>
</svg>
